<svg xmlns="http://www.w3.org/2000/svg" xmlns:xlink="http://www.w3.org/1999/xlink" width="106" zoomAndPan="magnify" viewBox="0 0 79.5 30.000001" height="40" preserveAspectRatio="xMidYMid meet" version="1.0"><defs><clipPath id="24c5d51e4a"><path d="M 1.039062 0 L 77.976562 0 L 77.976562 29.03125 L 1.039062 29.03125 Z M 1.039062 0 " clip-rule="nonzero"/></clipPath></defs><g clip-path="url(#24c5d51e4a)"><path fill="#ffffff" d="M 1.039062 0 L 78.460938 0 L 78.460938 36.519531 L 1.039062 36.519531 Z M 1.039062 0 " fill-opacity="1" fill-rule="nonzero"/><path fill="#ffffff" d="M 1.039062 0 L 78.460938 0 L 78.460938 29.214844 L 1.039062 29.214844 Z M 1.039062 0 " fill-opacity="1" fill-rule="nonzero"/><path fill="#ffffff" d="M 1.039062 0 L 78.460938 0 L 78.460938 29.214844 L 1.039062 29.214844 Z M 1.039062 0 " fill-opacity="1" fill-rule="nonzero"/></g><path fill="#003448" d="M 20.476562 21 L 20.738281 19.785156 L 24.140625 19.785156 C 24.253906 19.785156 24.339844 19.761719 24.394531 19.722656 C 24.449219 19.683594 24.488281 19.597656 24.511719 19.484375 L 24.703125 18.625 C 24.710938 18.601562 24.710938 18.570312 24.710938 18.523438 C 24.710938 18.414062 24.632812 18.355469 24.464844 18.355469 L 21.949219 18.355469 C 21.6875 18.355469 21.503906 18.300781 21.386719 18.199219 C 21.269531 18.089844 21.210938 17.9375 21.210938 17.742188 C 21.210938 17.671875 21.21875 17.578125 21.242188 17.472656 L 21.59375 15.863281 C 21.671875 15.492188 21.8125 15.226562 22.003906 15.042969 C 22.203125 14.871094 22.503906 14.777344 22.921875 14.777344 L 39.023438 14.777344 L 38.769531 15.960938 L 23.253906 15.960938 C 23.152344 15.960938 23.082031 15.984375 23.039062 16.023438 C 22.992188 16.0625 22.960938 16.140625 22.9375 16.25 L 22.757812 17.070312 C 22.75 17.09375 22.75 17.117188 22.738281 17.132812 C 22.738281 17.148438 22.730469 17.175781 22.730469 17.191406 C 22.730469 17.285156 22.804688 17.324219 22.9375 17.324219 L 25.496094 17.324219 C 25.757812 17.324219 25.945312 17.378906 26.066406 17.488281 C 26.183594 17.601562 26.238281 17.75 26.238281 17.945312 C 26.238281 18.027344 26.230469 18.113281 26.207031 18.207031 L 25.84375 19.902344 C 25.765625 20.273438 25.621094 20.542969 25.429688 20.714844 C 25.234375 20.890625 24.933594 20.984375 24.527344 20.984375 L 20.476562 20.984375 Z M 27.441406 21 C 27.179688 21 26.992188 20.953125 26.871094 20.867188 C 26.753906 20.777344 26.699219 20.636719 26.699219 20.449219 C 26.699219 20.359375 26.714844 20.242188 26.746094 20.09375 L 27.355469 17.269531 C 27.425781 16.953125 27.539062 16.722656 27.703125 16.582031 C 27.863281 16.433594 28.113281 16.363281 28.457031 16.363281 L 31.699219 16.363281 C 31.976562 16.363281 32.175781 16.410156 32.285156 16.496094 C 32.398438 16.582031 32.453125 16.722656 32.453125 16.914062 C 32.453125 17 32.4375 17.117188 32.40625 17.269531 L 31.796875 20.09375 C 31.726562 20.410156 31.613281 20.636719 31.449219 20.777344 C 31.289062 20.929688 31.035156 21 30.6875 21 Z M 30.980469 17.726562 C 30.996094 17.664062 30.996094 17.632812 30.996094 17.617188 C 30.996094 17.519531 30.910156 17.464844 30.742188 17.464844 L 28.875 17.464844 C 28.773438 17.464844 28.699219 17.480469 28.660156 17.511719 C 28.621094 17.542969 28.589844 17.617188 28.574219 17.71875 L 28.171875 19.613281 C 28.164062 19.636719 28.164062 19.660156 28.15625 19.675781 C 28.15625 19.691406 28.148438 19.714844 28.148438 19.730469 C 28.148438 19.816406 28.21875 19.855469 28.351562 19.855469 L 30.21875 19.855469 C 30.332031 19.855469 30.417969 19.839844 30.464844 19.800781 C 30.511719 19.761719 30.554688 19.699219 30.570312 19.613281 Z M 36.324219 21 L 36.425781 20.503906 C 36.308594 20.675781 36.171875 20.8125 36.023438 20.882812 C 35.871094 20.960938 35.699219 21 35.5 21 L 33.425781 21 C 33.171875 21 32.992188 20.960938 32.863281 20.875 C 32.746094 20.785156 32.683594 20.644531 32.683594 20.441406 C 32.683594 20.34375 32.699219 20.234375 32.730469 20.09375 L 33.539062 16.363281 L 34.859375 16.363281 L 34.140625 19.636719 C 34.125 19.699219 34.125 19.738281 34.125 19.753906 C 34.125 19.847656 34.203125 19.902344 34.351562 19.902344 L 36.246094 19.902344 C 36.347656 19.902344 36.417969 19.886719 36.457031 19.847656 C 36.503906 19.808594 36.539062 19.738281 36.5625 19.636719 L 37.28125 16.363281 L 38.601562 16.363281 L 37.597656 21.007812 L 36.324219 21.007812 Z M 38.59375 21 L 39.941406 14.734375 L 41.261719 14.734375 L 39.917969 21 Z M 38.59375 21 " fill-opacity="1" fill-rule="evenodd"/><path fill="#003448" d="M 41.128906 21 L 41.390625 19.785156 L 44.714844 19.785156 C 44.824219 19.785156 44.90625 19.761719 44.960938 19.722656 C 45.015625 19.683594 45.046875 19.597656 45.078125 19.484375 L 45.261719 18.625 C 45.269531 18.601562 45.269531 18.570312 45.269531 18.523438 C 45.269531 18.414062 45.1875 18.355469 45.03125 18.355469 L 42.570312 18.355469 C 42.316406 18.355469 42.132812 18.300781 42.023438 18.199219 C 41.914062 18.089844 41.847656 17.9375 41.847656 17.742188 C 41.847656 17.671875 41.855469 17.578125 41.871094 17.472656 L 42.214844 15.863281 C 42.292969 15.492188 42.425781 15.226562 42.617188 15.042969 C 42.808594 14.871094 43.109375 14.777344 43.511719 14.777344 L 47.390625 14.777344 L 47.144531 15.960938 L 43.835938 15.960938 C 43.742188 15.960938 43.667969 15.984375 43.621094 16.023438 C 43.582031 16.0625 43.542969 16.140625 43.519531 16.25 L 43.34375 17.070312 C 43.335938 17.09375 43.335938 17.117188 43.328125 17.132812 C 43.328125 17.148438 43.320312 17.175781 43.320312 17.191406 C 43.320312 17.285156 43.390625 17.324219 43.527344 17.324219 L 46.019531 17.324219 C 46.28125 17.324219 46.464844 17.378906 46.574219 17.488281 C 46.683594 17.601562 46.75 17.75 46.75 17.945312 C 46.75 18.027344 46.742188 18.113281 46.71875 18.207031 L 46.359375 19.902344 C 46.28125 20.273438 46.148438 20.542969 45.957031 20.714844 C 45.765625 20.898438 45.472656 20.984375 45.070312 20.984375 L 41.128906 20.984375 Z M 49.953125 18.230469 L 49.828125 18.089844 C 49.773438 18.035156 49.6875 17.929688 49.636719 17.875 C 49.613281 17.851562 49.589844 17.820312 49.566406 17.804688 C 49.542969 17.835938 49.296875 18.042969 49.25 18.089844 C 49.234375 18.105469 49.21875 18.121094 49.203125 18.136719 C 49.09375 18.238281 48.941406 18.371094 48.832031 18.460938 C 48.601562 18.648438 48.570312 18.941406 48.617188 19.195312 L 48.65625 19.328125 C 48.664062 19.351562 48.671875 19.367188 48.6875 19.390625 L 48.75 19.507812 C 48.78125 19.5625 48.839844 19.636719 48.878906 19.675781 C 49.011719 19.816406 49.148438 19.949219 49.386719 20.015625 C 49.613281 20.078125 49.84375 20.046875 49.976562 19.957031 C 50.082031 19.894531 50.3125 19.683594 50.40625 19.597656 L 50.722656 19.3125 C 50.761719 19.28125 50.800781 19.25 50.824219 19.21875 C 50.707031 19.097656 50.605469 18.964844 50.492188 18.847656 C 50.246094 18.5625 50.050781 18.332031 49.953125 18.230469 Z M 50.296875 18.398438 C 50.320312 18.382812 50.390625 18.324219 50.398438 18.285156 C 50.421875 18.222656 50.445312 18.183594 50.484375 18.136719 C 50.546875 18.050781 50.636719 17.980469 50.707031 17.921875 C 50.785156 17.867188 50.863281 17.796875 50.96875 17.78125 C 51 17.773438 51.0625 17.71875 51.085938 17.6875 C 51.125 17.648438 51.164062 17.617188 51.207031 17.585938 C 51.191406 17.550781 51.085938 17.464844 51.046875 17.433594 C 50.855469 17.300781 50.546875 17.230469 50.328125 17.292969 C 50.175781 17.332031 50.121094 17.355469 49.996094 17.433594 L 49.710938 17.679688 C 49.6875 17.703125 49.660156 17.726562 49.628906 17.75 L 49.914062 18.074219 C 49.988281 18.160156 50.160156 18.371094 50.246094 18.445312 C 50.261719 18.421875 50.277344 18.40625 50.296875 18.398438 Z M 50.785156 19.042969 C 50.808594 19.074219 50.871094 19.152344 50.90625 19.167969 L 51.222656 18.886719 C 51.449219 18.671875 51.546875 18.300781 51.457031 17.996094 C 51.449219 17.953125 51.441406 17.929688 51.425781 17.898438 C 51.410156 17.859375 51.402344 17.835938 51.386719 17.804688 C 51.355469 17.757812 51.308594 17.679688 51.261719 17.632812 L 51.148438 17.726562 C 51.125 17.75 51.046875 17.8125 51.039062 17.835938 C 50.992188 17.960938 50.929688 18.019531 50.847656 18.105469 L 50.738281 18.199219 C 50.523438 18.371094 50.476562 18.324219 50.4375 18.355469 L 50.351562 18.4375 C 50.246094 18.492188 50.753906 19.003906 50.785156 19.042969 Z M 56.96875 21 C 56.707031 21 56.523438 20.953125 56.414062 20.867188 C 56.304688 20.777344 56.246094 20.636719 56.246094 20.449219 C 56.246094 20.359375 56.261719 20.242188 56.296875 20.09375 L 57.363281 15.066406 L 58.652344 15.066406 L 58.378906 16.363281 L 59.5 16.363281 L 59.289062 17.371094 L 58.164062 17.371094 L 57.65625 19.746094 C 57.640625 19.808594 57.640625 19.847656 57.640625 19.863281 C 57.640625 19.949219 57.710938 19.992188 57.847656 19.992188 L 58.695312 19.992188 L 58.480469 21 Z M 52.914062 21 L 54.085938 15.476562 C 54.175781 15.082031 54.300781 14.816406 54.476562 14.648438 C 54.648438 14.492188 54.886719 14.414062 55.1875 14.414062 L 56.785156 14.414062 L 56.574219 15.414062 L 55.605469 15.414062 C 55.457031 15.414062 55.359375 15.492188 55.328125 15.652344 L 55.179688 16.363281 L 56.328125 16.363281 L 56.113281 17.371094 L 54.964844 17.371094 L 54.191406 21.007812 L 52.914062 21.007812 Z M 47.929688 21 C 47.667969 21 47.484375 20.953125 47.375 20.867188 C 47.261719 20.777344 47.199219 20.636719 47.199219 20.449219 C 47.199219 20.359375 47.214844 20.242188 47.246094 20.09375 L 47.847656 17.269531 C 47.921875 16.953125 48.03125 16.722656 48.179688 16.582031 C 48.339844 16.433594 48.585938 16.363281 48.910156 16.363281 L 52.074219 16.363281 C 52.34375 16.363281 52.535156 16.410156 52.644531 16.496094 C 52.757812 16.582031 52.8125 16.722656 52.8125 16.914062 C 52.8125 17 52.796875 17.117188 52.765625 17.269531 L 52.164062 20.09375 C 52.09375 20.410156 51.980469 20.636719 51.832031 20.777344 C 51.671875 20.929688 51.425781 21 51.085938 21 Z M 47.929688 21 " fill-opacity="1" fill-rule="evenodd"/><path fill="#000000" d="M 19.859375 23.636719 L 20.339844 21.695312 L 20.855469 21.695312 L 20.375 23.636719 Z M 25.652344 23.636719 L 24.789062 22.355469 L 24.472656 23.636719 L 24 23.636719 L 24.480469 21.695312 L 24.964844 21.695312 L 25.707031 22.855469 L 25.992188 21.695312 L 26.46875 21.695312 L 25.984375 23.636719 Z M 30.332031 22.863281 L 30.140625 23.636719 L 29.609375 23.636719 L 29.96875 22.214844 L 30.496094 22.214844 L 30.417969 22.539062 L 31.273438 22.539062 L 31.195312 22.863281 Z M 30 22.074219 L 30.09375 21.695312 L 31.78125 21.695312 L 31.683594 22.074219 Z M 35.222656 23.636719 C 35.113281 23.636719 35.027344 23.621094 34.976562 23.578125 C 34.929688 23.546875 34.898438 23.492188 34.898438 23.421875 C 34.898438 23.382812 34.90625 23.34375 34.921875 23.296875 L 35.238281 22.035156 C 35.269531 21.914062 35.320312 21.835938 35.390625 21.78125 C 35.460938 21.726562 35.5625 21.695312 35.714844 21.695312 L 36.847656 21.695312 C 36.957031 21.695312 37.042969 21.710938 37.089844 21.75 C 37.140625 21.78125 37.164062 21.835938 37.164062 21.90625 C 37.164062 21.921875 37.164062 21.945312 37.15625 21.96875 C 37.15625 21.992188 37.148438 22.011719 37.140625 22.035156 L 36.824219 23.296875 C 36.789062 23.414062 36.742188 23.492188 36.671875 23.546875 C 36.601562 23.601562 36.496094 23.636719 36.347656 23.636719 Z M 36.59375 22.183594 C 36.59375 22.175781 36.601562 22.167969 36.601562 22.160156 C 36.601562 22.152344 36.601562 22.144531 36.601562 22.136719 C 36.601562 22.089844 36.5625 22.074219 36.480469 22.074219 L 35.847656 22.074219 C 35.800781 22.074219 35.769531 22.082031 35.753906 22.097656 C 35.738281 22.113281 35.722656 22.144531 35.707031 22.183594 L 35.460938 23.152344 C 35.453125 23.167969 35.453125 23.183594 35.453125 23.191406 C 35.453125 23.234375 35.484375 23.257812 35.546875 23.257812 L 36.179688 23.257812 C 36.238281 23.257812 36.277344 23.25 36.292969 23.234375 C 36.316406 23.21875 36.332031 23.191406 36.339844 23.160156 Z M 41.304688 23.636719 L 40.789062 23.636719 L 41.175781 22.074219 L 40.621094 22.074219 L 40.71875 21.695312 L 42.339844 21.695312 L 42.246094 22.074219 L 41.691406 22.074219 Z M 45.363281 23.636719 L 45.71875 22.214844 L 46.25 22.214844 L 46.171875 22.53125 L 47.011719 22.53125 L 46.929688 22.839844 L 46.09375 22.839844 L 45.980469 23.25 L 47.144531 23.25 L 47.050781 23.636719 Z M 45.75 22.074219 L 45.847656 21.695312 L 47.539062 21.695312 L 47.445312 22.074219 Z M 51.039062 23.636719 C 50.929688 23.636719 50.839844 23.621094 50.792969 23.578125 C 50.746094 23.546875 50.722656 23.492188 50.722656 23.421875 C 50.722656 23.40625 50.722656 23.382812 50.722656 23.367188 C 50.722656 23.34375 50.730469 23.328125 50.738281 23.296875 L 51.054688 22.035156 C 51.085938 21.914062 51.132812 21.835938 51.207031 21.78125 C 51.277344 21.726562 51.378906 21.695312 51.53125 21.695312 L 52.8125 21.695312 L 52.71875 22.082031 L 51.6875 22.082031 C 51.632812 22.082031 51.601562 22.089844 51.578125 22.105469 C 51.5625 22.121094 51.546875 22.152344 51.53125 22.191406 L 51.292969 23.136719 C 51.292969 23.144531 51.292969 23.152344 51.285156 23.160156 C 51.285156 23.167969 51.285156 23.175781 51.285156 23.183594 C 51.285156 23.207031 51.292969 23.226562 51.308594 23.234375 C 51.324219 23.242188 51.355469 23.25 51.394531 23.25 L 52.433594 23.25 L 52.335938 23.644531 L 51.039062 23.644531 Z M 57.800781 23.636719 L 57.285156 23.636719 L 57.484375 22.832031 L 56.589844 22.832031 L 56.390625 23.636719 L 55.875 23.636719 L 56.359375 21.695312 L 56.875 21.695312 L 56.683594 22.46875 L 57.578125 22.46875 L 57.769531 21.695312 L 58.28125 21.695312 Z M 57.800781 23.636719 " fill-opacity="1" fill-rule="evenodd"/><path fill="#0073a8" d="M 51.449219 12.3125 L 51.253906 13.261719 C 51.492188 13.355469 52.085938 13.78125 52.304688 13.980469 C 52.402344 14.066406 52.464844 14.152344 52.542969 14.222656 C 53.3125 13.308594 53.777344 12.132812 53.792969 10.855469 L 51.609375 10.878906 C 51.53125 11.234375 51.523438 11.886719 51.449219 12.3125 Z M 51.449219 12.3125 " fill-opacity="1" fill-rule="evenodd"/><path fill="#0073a8" d="M 50.367188 14.59375 C 50.582031 14.183594 50.816406 13.65625 50.832031 13.402344 C 50.042969 13.101562 49.734375 12.914062 48.765625 12.875 L 48.765625 13.804688 C 49.304688 14.105469 49.84375 14.375 50.367188 14.59375 Z M 50.367188 14.59375 " fill-opacity="1" fill-rule="evenodd"/><path fill="#0073a8" d="M 48.792969 10.910156 C 48.792969 10.910156 48.78125 10.917969 48.78125 10.925781 L 48.773438 12.542969 C 49.328125 12.558594 49.9375 12.691406 50.453125 12.882812 C 50.621094 12.945312 50.792969 13.03125 50.953125 13.085938 C 51.015625 12.667969 51.347656 11.359375 51.253906 10.886719 Z M 48.792969 10.910156 " fill-opacity="1" fill-rule="evenodd"/><path fill="#0073a8" d="M 52.328125 14.460938 C 52.101562 14.207031 51.472656 13.71875 51.15625 13.578125 L 50.890625 14.277344 C 50.824219 14.4375 50.761719 14.578125 50.691406 14.71875 C 51.03125 14.855469 51.363281 14.957031 51.679688 15.042969 C 51.917969 14.871094 52.132812 14.671875 52.328125 14.460938 Z M 50.019531 15.816406 C 50.058594 15.832031 50.089844 15.855469 50.128906 15.871094 L 50.144531 15.863281 C 50.105469 15.847656 50.066406 15.832031 50.019531 15.816406 Z M 50.019531 15.816406 " fill-opacity="1" fill-rule="evenodd"/><path fill="#0073a8" d="M 44.800781 10.957031 L 45.632812 10.949219 C 45.671875 11.15625 45.6875 11.445312 45.710938 11.746094 C 45.386719 11.484375 45.085938 11.21875 44.800781 10.957031 Z M 44.800781 10.957031 " fill-opacity="1" fill-rule="evenodd"/><path fill="#0073a8" d="M 47.484375 13.03125 C 47.746094 12.960938 48.039062 12.90625 48.449219 12.882812 L 48.441406 13.632812 C 48.117188 13.433594 47.800781 13.238281 47.484375 13.03125 Z M 47.484375 13.03125 " fill-opacity="1" fill-rule="evenodd"/><path fill="#0073a8" d="M 48.449219 10.917969 C 48.449219 10.917969 48.457031 10.925781 48.457031 10.933594 L 48.449219 12.550781 C 48.015625 12.574219 47.554688 12.667969 47.128906 12.804688 C 46.765625 12.550781 46.402344 12.289062 46.058594 12.03125 C 45.988281 11.605469 45.941406 11.1875 45.988281 10.949219 Z M 48.449219 10.917969 " fill-opacity="1" fill-rule="evenodd"/><path fill="#0073a8" d="M 51.472656 9.121094 L 51.285156 8.179688 C 51.523438 8.085938 52.125 7.644531 52.34375 7.4375 C 52.441406 7.351562 52.503906 7.257812 52.589844 7.1875 C 53.351562 8.085938 53.800781 9.246094 53.792969 10.523438 L 51.609375 10.546875 C 51.539062 10.191406 51.539062 9.546875 51.472656 9.121094 Z M 51.472656 9.121094 " fill-opacity="1" fill-rule="evenodd"/><path fill="#0073a8" d="M 48.863281 5.355469 C 49.351562 5.464844 49.621094 5.726562 49.898438 6.058594 C 49.996094 6.167969 50.058594 6.261719 50.144531 6.398438 C 50.320312 6.65625 50.839844 7.667969 50.863281 8.039062 C 50.074219 8.355469 49.757812 8.550781 48.792969 8.613281 L 48.816406 5.347656 C 48.839844 5.355469 48.847656 5.355469 48.863281 5.355469 Z M 48.863281 5.355469 " fill-opacity="1" fill-rule="evenodd"/><path fill="#0073a8" d="M 48.792969 10.585938 C 48.792969 10.585938 48.78125 10.578125 48.78125 10.570312 L 48.792969 8.953125 C 49.351562 8.921875 49.953125 8.78125 50.46875 8.574219 C 50.636719 8.503906 50.816406 8.417969 50.976562 8.363281 C 51.039062 8.78125 51.347656 10.082031 51.253906 10.554688 Z M 48.792969 10.585938 " fill-opacity="1" fill-rule="evenodd"/><path fill="#0073a8" d="M 52.378906 6.949219 C 52.148438 7.210938 51.515625 7.707031 51.199219 7.863281 L 50.9375 7.171875 C 50.839844 6.941406 50.753906 6.738281 50.636719 6.53125 C 50.515625 6.320312 50.398438 6.128906 50.253906 5.949219 C 50.183594 5.851562 50.121094 5.78125 50.042969 5.6875 C 49.976562 5.609375 49.898438 5.5625 49.84375 5.492188 C 50.832031 5.734375 51.703125 6.246094 52.378906 6.949219 Z M 52.378906 6.949219 " fill-opacity="1" fill-rule="evenodd"/><path fill="#0073a8" d="M 45.792969 9.183594 L 45.988281 8.234375 C 45.757812 8.140625 45.15625 7.714844 44.9375 7.519531 C 44.839844 7.429688 44.777344 7.34375 44.699219 7.273438 C 44.144531 7.9375 43.75 8.734375 43.566406 9.601562 C 43.8125 9.925781 44.113281 10.269531 44.46875 10.625 L 45.640625 10.609375 C 45.710938 10.261719 45.71875 9.617188 45.792969 9.183594 Z M 45.792969 9.183594 " fill-opacity="1" fill-rule="evenodd"/><path fill="#0073a8" d="M 48.449219 5.363281 C 47.960938 5.484375 47.691406 5.757812 47.40625 6.089844 C 47.3125 6.207031 47.246094 6.296875 47.152344 6.4375 C 46.96875 6.699219 46.441406 7.722656 46.417969 8.09375 C 47.207031 8.394531 47.515625 8.582031 48.480469 8.621094 L 48.5 5.355469 C 48.472656 5.363281 48.457031 5.363281 48.449219 5.363281 Z M 48.449219 5.363281 " fill-opacity="1" fill-rule="evenodd"/><path fill="#0073a8" d="M 48.457031 10.585938 C 48.457031 10.585938 48.464844 10.578125 48.464844 10.570312 L 48.472656 8.953125 C 47.921875 8.9375 47.3125 8.804688 46.796875 8.613281 C 46.628906 8.550781 46.457031 8.464844 46.296875 8.410156 C 46.234375 8.828125 45.902344 10.136719 45.996094 10.609375 Z M 48.457031 10.585938 " fill-opacity="1" fill-rule="evenodd"/><path fill="#0073a8" d="M 44.914062 7.035156 C 45.140625 7.289062 45.765625 7.777344 46.082031 7.921875 L 46.351562 7.21875 C 46.449219 6.988281 46.542969 6.785156 46.660156 6.570312 C 46.789062 6.351562 46.90625 6.160156 47.042969 5.980469 C 47.113281 5.886719 47.183594 5.804688 47.253906 5.71875 C 47.320312 5.640625 47.398438 5.59375 47.460938 5.523438 C 46.472656 5.78125 45.59375 6.320312 44.914062 7.035156 Z M 44.914062 7.035156 " fill-opacity="1" fill-rule="evenodd"/><path fill="#f07c00" d="M 43.433594 9.933594 C 43.082031 9.347656 42.679688 8.511719 42.863281 7.785156 C 43.066406 6.980469 43.652344 6.886719 44.570312 6.683594 C 43.90625 6.375 42.417969 6.554688 41.90625 7.203125 C 39.496094 10.253906 48.515625 16.765625 52.394531 16.425781 C 54.378906 16.25 54.464844 14.695312 53.785156 13.261719 C 53.605469 12.875 53.554688 12.929688 53.523438 12.898438 C 54.5 18.515625 45.207031 12.90625 43.433594 9.933594 Z M 43.433594 9.933594 " fill-opacity="1" fill-rule="evenodd"/><path fill="#000000" d="M 23.292969 13.285156 L 23.222656 13.402344 C 23.175781 13.386719 23.136719 13.378906 23.097656 13.378906 C 22.976562 13.378906 22.867188 13.417969 22.773438 13.503906 C 22.667969 13.59375 22.597656 13.6875 22.558594 13.804688 C 22.527344 13.898438 22.527344 13.988281 22.558594 14.050781 C 22.589844 14.113281 22.660156 14.152344 22.773438 14.152344 C 22.820312 14.152344 22.882812 14.144531 22.960938 14.121094 L 22.90625 14.230469 C 22.820312 14.246094 22.75 14.253906 22.707031 14.253906 C 22.566406 14.253906 22.472656 14.214844 22.421875 14.128906 C 22.382812 14.042969 22.382812 13.941406 22.421875 13.820312 C 22.480469 13.664062 22.582031 13.539062 22.722656 13.425781 C 22.867188 13.324219 23.015625 13.269531 23.175781 13.269531 C 23.214844 13.261719 23.253906 13.269531 23.292969 13.285156 Z M 23.933594 13.519531 C 23.800781 13.789062 23.722656 13.972656 23.691406 14.066406 C 23.675781 14.121094 23.660156 14.175781 23.644531 14.230469 L 23.507812 14.246094 C 23.523438 14.207031 23.539062 14.144531 23.5625 14.074219 L 23.554688 14.074219 C 23.453125 14.191406 23.34375 14.253906 23.230469 14.253906 C 23.105469 14.253906 23.066406 14.183594 23.121094 14.035156 C 23.136719 13.996094 23.167969 13.914062 23.222656 13.796875 C 23.277344 13.679688 23.308594 13.59375 23.332031 13.527344 L 23.46875 13.511719 C 23.460938 13.539062 23.429688 13.609375 23.375 13.726562 C 23.316406 13.84375 23.277344 13.929688 23.253906 13.996094 C 23.230469 14.050781 23.230469 14.089844 23.246094 14.113281 C 23.261719 14.136719 23.285156 14.144531 23.332031 14.144531 C 23.390625 14.144531 23.453125 14.113281 23.523438 14.042969 C 23.59375 13.972656 23.660156 13.890625 23.691406 13.8125 C 23.746094 13.695312 23.785156 13.601562 23.808594 13.527344 Z M 24.546875 13.527344 L 24.472656 13.640625 C 24.433594 13.625 24.378906 13.617188 24.316406 13.617188 C 24.21875 13.617188 24.15625 13.648438 24.140625 13.710938 C 24.132812 13.734375 24.132812 13.75 24.148438 13.765625 C 24.164062 13.78125 24.1875 13.796875 24.234375 13.820312 C 24.339844 13.875 24.378906 13.941406 24.347656 14.027344 C 24.292969 14.175781 24.171875 14.253906 23.984375 14.253906 C 23.902344 14.253906 23.839844 14.246094 23.777344 14.230469 L 23.847656 14.121094 C 23.894531 14.144531 23.960938 14.152344 24.03125 14.152344 C 24.140625 14.152344 24.203125 14.121094 24.226562 14.058594 C 24.246094 14.011719 24.210938 13.972656 24.140625 13.929688 C 24.039062 13.875 24 13.804688 24.023438 13.726562 C 24.046875 13.65625 24.09375 13.601562 24.15625 13.570312 C 24.21875 13.527344 24.292969 13.511719 24.363281 13.511719 C 24.441406 13.511719 24.496094 13.519531 24.546875 13.527344 Z M 24.886719 14.097656 L 24.828125 14.191406 C 24.765625 14.222656 24.703125 14.246094 24.65625 14.246094 C 24.59375 14.246094 24.546875 14.230469 24.527344 14.199219 C 24.511719 14.167969 24.519531 14.113281 24.546875 14.042969 C 24.570312 13.980469 24.625 13.851562 24.726562 13.648438 C 24.703125 13.648438 24.664062 13.648438 24.609375 13.65625 L 24.664062 13.554688 C 24.710938 13.554688 24.75 13.5625 24.78125 13.5625 C 24.789062 13.539062 24.828125 13.472656 24.886719 13.347656 L 24.996094 13.339844 C 24.972656 13.386719 24.933594 13.464844 24.886719 13.5625 C 24.933594 13.5625 24.996094 13.5625 25.082031 13.554688 L 25.027344 13.664062 C 24.949219 13.664062 24.886719 13.65625 24.828125 13.65625 C 24.742188 13.820312 24.6875 13.941406 24.664062 14.011719 C 24.640625 14.066406 24.640625 14.105469 24.648438 14.121094 C 24.65625 14.144531 24.671875 14.152344 24.710938 14.152344 C 24.765625 14.144531 24.820312 14.128906 24.886719 14.097656 Z M 25.78125 13.820312 C 25.742188 13.941406 25.667969 14.042969 25.566406 14.128906 C 25.464844 14.214844 25.351562 14.261719 25.234375 14.261719 C 25.15625 14.261719 25.097656 14.230469 25.066406 14.167969 C 25.035156 14.105469 25.035156 14.027344 25.066406 13.929688 C 25.105469 13.8125 25.179688 13.71875 25.28125 13.632812 C 25.382812 13.546875 25.496094 13.503906 25.613281 13.503906 C 25.691406 13.503906 25.75 13.539062 25.78125 13.59375 C 25.820312 13.648438 25.820312 13.726562 25.78125 13.820312 Z M 25.652344 13.84375 C 25.675781 13.773438 25.683594 13.71875 25.667969 13.671875 C 25.652344 13.625 25.621094 13.601562 25.558594 13.601562 C 25.488281 13.601562 25.414062 13.632812 25.34375 13.703125 C 25.273438 13.773438 25.226562 13.84375 25.203125 13.921875 C 25.179688 13.996094 25.171875 14.050781 25.1875 14.097656 C 25.203125 14.144531 25.234375 14.167969 25.296875 14.167969 C 25.367188 14.167969 25.441406 14.136719 25.511719 14.066406 C 25.574219 13.996094 25.621094 13.921875 25.652344 13.84375 Z M 27 13.726562 C 26.984375 13.78125 26.945312 13.867188 26.894531 13.980469 C 26.847656 14.089844 26.808594 14.175781 26.792969 14.230469 L 26.667969 14.238281 C 26.683594 14.199219 26.714844 14.128906 26.769531 14.011719 C 26.824219 13.890625 26.855469 13.8125 26.871094 13.773438 C 26.894531 13.71875 26.894531 13.671875 26.886719 13.648438 C 26.878906 13.625 26.855469 13.609375 26.816406 13.609375 C 26.753906 13.609375 26.691406 13.640625 26.617188 13.703125 C 26.546875 13.765625 26.492188 13.84375 26.453125 13.941406 C 26.398438 14.058594 26.359375 14.152344 26.332031 14.222656 L 26.207031 14.230469 C 26.214844 14.199219 26.253906 14.121094 26.308594 14.003906 C 26.367188 13.882812 26.40625 13.804688 26.421875 13.765625 C 26.445312 13.710938 26.445312 13.664062 26.4375 13.640625 C 26.429688 13.617188 26.40625 13.601562 26.367188 13.601562 C 26.308594 13.601562 26.238281 13.632812 26.175781 13.703125 C 26.105469 13.773438 26.050781 13.84375 26.007812 13.941406 C 25.953125 14.058594 25.914062 14.152344 25.882812 14.222656 L 25.757812 14.230469 C 25.882812 13.980469 25.960938 13.804688 25.992188 13.71875 C 26.007812 13.671875 26.03125 13.609375 26.050781 13.527344 L 26.183594 13.511719 C 26.167969 13.5625 26.152344 13.617188 26.128906 13.6875 L 26.136719 13.6875 C 26.238281 13.570312 26.34375 13.503906 26.445312 13.503906 C 26.5 13.503906 26.539062 13.519531 26.554688 13.554688 C 26.570312 13.585938 26.570312 13.632812 26.554688 13.679688 L 26.5625 13.679688 C 26.667969 13.5625 26.769531 13.496094 26.878906 13.496094 C 27.015625 13.511719 27.054688 13.585938 27 13.726562 Z M 27.425781 13.519531 C 27.410156 13.5625 27.394531 13.609375 27.363281 13.664062 C 27.332031 13.726562 27.292969 13.804688 27.253906 13.890625 C 27.21875 13.964844 27.171875 14.074219 27.109375 14.222656 L 26.976562 14.230469 C 27.015625 14.152344 27.070312 14.042969 27.140625 13.890625 C 27.1875 13.796875 27.21875 13.703125 27.253906 13.625 C 27.269531 13.59375 27.277344 13.5625 27.285156 13.539062 Z M 27.5625 13.300781 C 27.554688 13.332031 27.527344 13.355469 27.503906 13.371094 C 27.480469 13.394531 27.449219 13.402344 27.425781 13.402344 C 27.378906 13.402344 27.371094 13.378906 27.386719 13.332031 C 27.394531 13.300781 27.417969 13.277344 27.441406 13.261719 C 27.464844 13.246094 27.496094 13.230469 27.519531 13.230469 C 27.5625 13.238281 27.578125 13.253906 27.5625 13.300781 Z M 28.042969 13.527344 L 27.972656 13.640625 C 27.933594 13.625 27.878906 13.617188 27.8125 13.617188 C 27.71875 13.617188 27.65625 13.648438 27.640625 13.710938 C 27.632812 13.734375 27.632812 13.75 27.648438 13.765625 C 27.664062 13.78125 27.6875 13.796875 27.734375 13.820312 C 27.839844 13.875 27.878906 13.941406 27.847656 14.027344 C 27.789062 14.175781 27.671875 14.253906 27.480469 14.253906 C 27.402344 14.253906 27.339844 14.246094 27.277344 14.230469 L 27.347656 14.121094 C 27.394531 14.144531 27.457031 14.152344 27.527344 14.152344 C 27.640625 14.152344 27.703125 14.121094 27.726562 14.058594 C 27.742188 14.011719 27.710938 13.972656 27.640625 13.929688 C 27.539062 13.875 27.496094 13.804688 27.519531 13.726562 C 27.546875 13.65625 27.59375 13.601562 27.65625 13.570312 C 27.71875 13.527344 27.789062 13.511719 27.863281 13.511719 C 27.941406 13.511719 28.003906 13.519531 28.042969 13.527344 Z M 28.714844 13.671875 C 28.691406 13.734375 28.644531 13.789062 28.574219 13.820312 C 28.480469 13.867188 28.335938 13.890625 28.148438 13.890625 C 28.113281 13.980469 28.105469 14.042969 28.121094 14.082031 C 28.140625 14.121094 28.1875 14.144531 28.257812 14.144531 C 28.328125 14.144531 28.414062 14.121094 28.519531 14.066406 L 28.464844 14.175781 C 28.375 14.222656 28.289062 14.246094 28.195312 14.246094 C 28.089844 14.246094 28.027344 14.214844 28.003906 14.160156 C 27.980469 14.097656 27.980469 14.027344 28.011719 13.929688 C 28.058594 13.796875 28.140625 13.6875 28.242188 13.617188 C 28.34375 13.539062 28.457031 13.503906 28.558594 13.503906 C 28.621094 13.503906 28.667969 13.519531 28.699219 13.554688 C 28.734375 13.578125 28.742188 13.617188 28.714844 13.671875 Z M 28.597656 13.671875 C 28.605469 13.648438 28.605469 13.625 28.582031 13.609375 C 28.566406 13.59375 28.535156 13.585938 28.496094 13.585938 C 28.441406 13.585938 28.382812 13.601562 28.328125 13.640625 C 28.273438 13.671875 28.21875 13.726562 28.179688 13.804688 C 28.328125 13.804688 28.441406 13.789062 28.503906 13.757812 C 28.558594 13.742188 28.589844 13.710938 28.597656 13.671875 Z M 29.707031 13.191406 C 29.699219 13.207031 29.675781 13.253906 29.628906 13.347656 C 29.578125 13.441406 29.523438 13.554688 29.460938 13.679688 C 29.40625 13.804688 29.351562 13.921875 29.308594 14.035156 C 29.285156 14.097656 29.261719 14.160156 29.246094 14.222656 L 29.128906 14.230469 C 29.136719 14.191406 29.152344 14.136719 29.175781 14.058594 L 29.167969 14.058594 C 29.058594 14.175781 28.953125 14.238281 28.835938 14.238281 C 28.765625 14.238281 28.714844 14.214844 28.691406 14.160156 C 28.667969 14.113281 28.667969 14.042969 28.699219 13.957031 C 28.75 13.820312 28.820312 13.710938 28.921875 13.625 C 29.015625 13.539062 29.128906 13.496094 29.238281 13.496094 C 29.308594 13.496094 29.367188 13.511719 29.390625 13.546875 L 29.398438 13.546875 C 29.445312 13.441406 29.492188 13.324219 29.554688 13.191406 Z M 29.375 13.648438 C 29.34375 13.617188 29.300781 13.609375 29.246094 13.609375 C 29.152344 13.609375 29.074219 13.640625 29.007812 13.695312 C 28.9375 13.75 28.890625 13.828125 28.851562 13.929688 C 28.796875 14.082031 28.820312 14.160156 28.929688 14.160156 C 28.984375 14.160156 29.050781 14.128906 29.121094 14.058594 C 29.191406 13.988281 29.253906 13.914062 29.292969 13.820312 Z M 30.679688 13.285156 L 30.609375 13.402344 C 30.5625 13.378906 30.496094 13.371094 30.410156 13.371094 C 30.277344 13.371094 30.1875 13.417969 30.15625 13.503906 C 30.140625 13.546875 30.148438 13.570312 30.164062 13.601562 C 30.179688 13.625 30.21875 13.65625 30.269531 13.679688 C 30.332031 13.71875 30.378906 13.757812 30.410156 13.796875 C 30.433594 13.84375 30.441406 13.898438 30.410156 13.964844 C 30.339844 14.152344 30.171875 14.253906 29.917969 14.253906 C 29.832031 14.253906 29.761719 14.246094 29.699219 14.222656 L 29.777344 14.105469 C 29.832031 14.136719 29.894531 14.144531 29.96875 14.144531 C 30.140625 14.144531 30.253906 14.089844 30.285156 13.988281 C 30.300781 13.949219 30.300781 13.90625 30.277344 13.875 C 30.253906 13.84375 30.210938 13.8125 30.15625 13.78125 C 30.09375 13.742188 30.054688 13.710938 30.03125 13.671875 C 30.007812 13.632812 30.007812 13.585938 30.03125 13.519531 C 30.0625 13.433594 30.117188 13.363281 30.195312 13.316406 C 30.277344 13.269531 30.363281 13.246094 30.457031 13.246094 C 30.578125 13.261719 30.648438 13.269531 30.679688 13.285156 Z M 31.296875 13.820312 C 31.257812 13.941406 31.1875 14.042969 31.082031 14.128906 C 30.980469 14.214844 30.871094 14.261719 30.75 14.261719 C 30.671875 14.261719 30.617188 14.230469 30.585938 14.167969 C 30.554688 14.105469 30.554688 14.027344 30.585938 13.929688 C 30.625 13.8125 30.695312 13.71875 30.796875 13.632812 C 30.902344 13.546875 31.011719 13.503906 31.132812 13.503906 C 31.210938 13.503906 31.265625 13.539062 31.296875 13.59375 C 31.328125 13.648438 31.328125 13.726562 31.296875 13.820312 Z M 31.164062 13.84375 C 31.1875 13.773438 31.195312 13.71875 31.179688 13.671875 C 31.164062 13.625 31.132812 13.601562 31.066406 13.601562 C 30.996094 13.601562 30.925781 13.632812 30.855469 13.703125 C 30.78125 13.773438 30.734375 13.84375 30.710938 13.921875 C 30.6875 13.996094 30.679688 14.050781 30.695312 14.097656 C 30.710938 14.144531 30.742188 14.167969 30.804688 14.167969 C 30.878906 14.167969 30.949219 14.136719 31.019531 14.066406 C 31.089844 13.996094 31.140625 13.921875 31.164062 13.84375 Z M 32.144531 13.191406 L 32.089844 13.285156 C 32.066406 13.285156 32.035156 13.277344 32.007812 13.277344 C 31.960938 13.277344 31.929688 13.292969 31.898438 13.332031 C 31.867188 13.371094 31.828125 13.441406 31.773438 13.554688 C 31.820312 13.554688 31.882812 13.554688 31.96875 13.546875 L 31.914062 13.65625 C 31.828125 13.65625 31.765625 13.648438 31.726562 13.648438 C 31.644531 13.828125 31.574219 13.996094 31.503906 14.152344 C 31.433594 14.308594 31.375 14.414062 31.320312 14.460938 C 31.265625 14.507812 31.203125 14.546875 31.132812 14.5625 L 31.121094 14.507812 C 31.179688 14.46875 31.226562 14.429688 31.265625 14.382812 C 31.304688 14.332031 31.351562 14.238281 31.40625 14.105469 C 31.472656 13.972656 31.535156 13.820312 31.613281 13.648438 C 31.582031 13.648438 31.535156 13.648438 31.464844 13.65625 L 31.519531 13.546875 C 31.582031 13.554688 31.628906 13.554688 31.660156 13.554688 C 31.726562 13.425781 31.78125 13.332031 31.84375 13.269531 C 31.90625 13.207031 31.976562 13.183594 32.058594 13.183594 C 32.089844 13.175781 32.121094 13.183594 32.144531 13.191406 Z M 32.261719 14.097656 L 32.207031 14.191406 C 32.144531 14.222656 32.082031 14.246094 32.035156 14.246094 C 31.96875 14.246094 31.921875 14.230469 31.914062 14.199219 C 31.898438 14.167969 31.90625 14.113281 31.929688 14.042969 C 31.953125 13.980469 32.007812 13.851562 32.113281 13.648438 C 32.089844 13.648438 32.050781 13.648438 31.992188 13.65625 L 32.050781 13.554688 C 32.097656 13.554688 32.136719 13.5625 32.167969 13.5625 C 32.175781 13.539062 32.214844 13.472656 32.269531 13.347656 L 32.382812 13.339844 C 32.359375 13.386719 32.316406 13.464844 32.269531 13.5625 C 32.316406 13.5625 32.382812 13.5625 32.46875 13.554688 L 32.414062 13.664062 C 32.335938 13.664062 32.269531 13.65625 32.214844 13.65625 C 32.128906 13.820312 32.074219 13.941406 32.050781 14.011719 C 32.027344 14.066406 32.027344 14.105469 32.035156 14.121094 C 32.042969 14.144531 32.058594 14.152344 32.097656 14.152344 C 32.136719 14.144531 32.199219 14.128906 32.261719 14.097656 Z M 33.625 13.527344 C 33.609375 13.578125 33.511719 13.695312 33.339844 13.890625 C 33.164062 14.089844 33.070312 14.207031 33.0625 14.230469 L 32.96875 14.230469 C 32.976562 14.214844 32.984375 14.136719 33.007812 13.996094 C 33.023438 13.851562 33.039062 13.742188 33.054688 13.664062 L 33.046875 13.664062 C 32.984375 13.75 32.886719 13.859375 32.777344 14.003906 C 32.660156 14.136719 32.59375 14.214844 32.585938 14.230469 L 32.492188 14.230469 C 32.5 14.207031 32.515625 14.089844 32.539062 13.890625 C 32.5625 13.695312 32.578125 13.570312 32.585938 13.539062 L 32.722656 13.527344 C 32.707031 13.570312 32.691406 13.671875 32.667969 13.828125 C 32.644531 13.988281 32.628906 14.074219 32.617188 14.097656 L 32.628906 14.097656 C 32.644531 14.058594 32.714844 13.964844 32.847656 13.8125 C 32.976562 13.664062 33.046875 13.570312 33.054688 13.546875 L 33.171875 13.546875 C 33.164062 13.570312 33.148438 13.664062 33.132812 13.828125 C 33.109375 13.996094 33.101562 14.089844 33.09375 14.105469 L 33.101562 14.105469 C 33.109375 14.082031 33.179688 13.996094 33.300781 13.835938 C 33.417969 13.6875 33.488281 13.585938 33.503906 13.546875 Z M 34.3125 13.496094 C 34.179688 13.742188 34.089844 13.921875 34.050781 14.042969 C 34.035156 14.097656 34.011719 14.152344 33.996094 14.222656 L 33.863281 14.238281 C 33.878906 14.191406 33.894531 14.144531 33.917969 14.074219 L 33.910156 14.074219 C 33.804688 14.183594 33.703125 14.238281 33.601562 14.238281 C 33.539062 14.238281 33.503906 14.214844 33.488281 14.167969 C 33.472656 14.121094 33.480469 14.058594 33.503906 13.988281 C 33.554688 13.867188 33.632812 13.757812 33.75 13.671875 C 33.871094 13.585938 34.011719 13.539062 34.171875 13.527344 L 34.210938 13.503906 Z M 34.132812 13.617188 C 34.003906 13.617188 33.902344 13.65625 33.824219 13.71875 C 33.742188 13.78125 33.679688 13.867188 33.640625 13.980469 C 33.601562 14.089844 33.617188 14.144531 33.695312 14.144531 C 33.75 14.144531 33.804688 14.105469 33.878906 14.035156 C 33.949219 13.964844 33.996094 13.890625 34.027344 13.828125 C 34.066406 13.773438 34.097656 13.703125 34.132812 13.617188 Z M 34.921875 13.527344 L 34.835938 13.648438 C 34.804688 13.640625 34.773438 13.632812 34.742188 13.632812 C 34.628906 13.632812 34.542969 13.6875 34.488281 13.804688 C 34.40625 13.972656 34.34375 14.113281 34.296875 14.230469 L 34.171875 14.238281 C 34.296875 13.988281 34.375 13.8125 34.40625 13.726562 C 34.425781 13.679688 34.449219 13.617188 34.464844 13.539062 L 34.597656 13.519531 C 34.589844 13.5625 34.574219 13.601562 34.566406 13.632812 L 34.574219 13.632812 C 34.660156 13.554688 34.742188 13.511719 34.804688 13.511719 C 34.84375 13.503906 34.882812 13.511719 34.921875 13.527344 Z M 35.53125 13.671875 C 35.507812 13.734375 35.460938 13.789062 35.390625 13.820312 C 35.292969 13.867188 35.152344 13.890625 34.960938 13.890625 C 34.929688 13.980469 34.921875 14.042969 34.9375 14.082031 C 34.953125 14.121094 35 14.144531 35.074219 14.144531 C 35.144531 14.144531 35.230469 14.121094 35.335938 14.066406 L 35.277344 14.175781 C 35.191406 14.222656 35.105469 14.246094 35.007812 14.246094 C 34.90625 14.246094 34.84375 14.214844 34.820312 14.160156 C 34.796875 14.097656 34.796875 14.027344 34.828125 13.929688 C 34.875 13.796875 34.953125 13.6875 35.058594 13.617188 C 35.160156 13.539062 35.269531 13.503906 35.375 13.503906 C 35.4375 13.503906 35.484375 13.519531 35.515625 13.554688 C 35.546875 13.578125 35.554688 13.617188 35.53125 13.671875 Z M 35.421875 13.671875 C 35.429688 13.648438 35.429688 13.625 35.40625 13.609375 C 35.390625 13.59375 35.359375 13.585938 35.320312 13.585938 C 35.261719 13.585938 35.207031 13.601562 35.152344 13.640625 C 35.097656 13.671875 35.042969 13.726562 35 13.804688 C 35.152344 13.804688 35.261719 13.789062 35.328125 13.757812 C 35.375 13.742188 35.40625 13.710938 35.421875 13.671875 Z M 36.6875 13.285156 L 36.617188 13.402344 C 36.570312 13.378906 36.503906 13.371094 36.417969 13.371094 C 36.285156 13.371094 36.195312 13.417969 36.164062 13.503906 C 36.148438 13.546875 36.15625 13.570312 36.171875 13.601562 C 36.1875 13.625 36.230469 13.65625 36.277344 13.679688 C 36.339844 13.71875 36.386719 13.757812 36.417969 13.796875 C 36.441406 13.84375 36.449219 13.898438 36.417969 13.964844 C 36.347656 14.152344 36.179688 14.253906 35.929688 14.253906 C 35.839844 14.253906 35.769531 14.246094 35.707031 14.222656 L 35.785156 14.105469 C 35.839844 14.136719 35.902344 14.144531 35.976562 14.144531 C 36.148438 14.144531 36.261719 14.089844 36.292969 13.988281 C 36.308594 13.949219 36.308594 13.90625 36.285156 13.875 C 36.261719 13.84375 36.222656 13.8125 36.164062 13.78125 C 36.101562 13.742188 36.0625 13.710938 36.039062 13.671875 C 36.015625 13.632812 36.015625 13.585938 36.039062 13.519531 C 36.070312 13.433594 36.125 13.363281 36.203125 13.316406 C 36.285156 13.269531 36.371094 13.246094 36.464844 13.246094 C 36.578125 13.261719 36.65625 13.269531 36.6875 13.285156 Z M 37.304688 13.820312 C 37.265625 13.941406 37.195312 14.042969 37.089844 14.128906 C 36.988281 14.214844 36.878906 14.261719 36.757812 14.261719 C 36.679688 14.261719 36.625 14.230469 36.59375 14.167969 C 36.5625 14.105469 36.5625 14.027344 36.59375 13.929688 C 36.632812 13.8125 36.703125 13.71875 36.804688 13.632812 C 36.910156 13.546875 37.019531 13.503906 37.140625 13.503906 C 37.21875 13.503906 37.273438 13.539062 37.304688 13.59375 C 37.335938 13.648438 37.335938 13.726562 37.304688 13.820312 Z M 37.171875 13.84375 C 37.195312 13.773438 37.203125 13.71875 37.1875 13.671875 C 37.171875 13.625 37.140625 13.601562 37.074219 13.601562 C 37.003906 13.601562 36.933594 13.632812 36.863281 13.703125 C 36.789062 13.773438 36.742188 13.84375 36.71875 13.921875 C 36.695312 13.996094 36.6875 14.050781 36.703125 14.097656 C 36.71875 14.144531 36.75 14.167969 36.816406 14.167969 C 36.886719 14.167969 36.957031 14.136719 37.027344 14.066406 C 37.089844 13.996094 37.140625 13.921875 37.171875 13.84375 Z M 37.898438 13.191406 C 37.890625 13.222656 37.859375 13.285156 37.804688 13.386719 C 37.757812 13.488281 37.710938 13.585938 37.660156 13.6875 C 37.558594 13.914062 37.480469 14.097656 37.425781 14.230469 L 37.28125 14.246094 C 37.289062 14.222656 37.320312 14.160156 37.375 14.050781 C 37.433594 13.941406 37.488281 13.820312 37.550781 13.6875 C 37.644531 13.488281 37.710938 13.324219 37.757812 13.207031 Z M 38.539062 13.519531 C 38.40625 13.789062 38.328125 13.972656 38.292969 14.066406 C 38.277344 14.121094 38.261719 14.175781 38.246094 14.230469 L 38.113281 14.246094 C 38.128906 14.207031 38.144531 14.144531 38.167969 14.074219 L 38.160156 14.074219 C 38.058594 14.191406 37.945312 14.253906 37.835938 14.253906 C 37.710938 14.253906 37.667969 14.183594 37.726562 14.035156 C 37.742188 13.996094 37.773438 13.914062 37.828125 13.796875 C 37.882812 13.679688 37.914062 13.59375 37.9375 13.527344 L 38.074219 13.511719 C 38.066406 13.539062 38.035156 13.609375 37.976562 13.726562 C 37.921875 13.84375 37.882812 13.929688 37.859375 13.996094 C 37.835938 14.050781 37.835938 14.089844 37.851562 14.113281 C 37.867188 14.136719 37.890625 14.144531 37.9375 14.144531 C 37.992188 14.144531 38.058594 14.113281 38.128906 14.042969 C 38.199219 13.972656 38.261719 13.890625 38.292969 13.8125 C 38.351562 13.695312 38.390625 13.601562 38.414062 13.527344 Z M 38.902344 14.097656 L 38.847656 14.191406 C 38.785156 14.222656 38.722656 14.246094 38.675781 14.246094 C 38.613281 14.246094 38.5625 14.230469 38.554688 14.199219 C 38.539062 14.167969 38.546875 14.113281 38.570312 14.042969 C 38.59375 13.980469 38.652344 13.851562 38.753906 13.648438 C 38.730469 13.648438 38.691406 13.648438 38.636719 13.65625 L 38.691406 13.554688 C 38.738281 13.554688 38.777344 13.5625 38.808594 13.5625 C 38.816406 13.539062 38.855469 13.472656 38.914062 13.347656 L 39.023438 13.339844 C 39 13.386719 38.960938 13.464844 38.914062 13.5625 C 38.960938 13.5625 39.023438 13.5625 39.109375 13.554688 L 39.054688 13.664062 C 38.976562 13.664062 38.914062 13.65625 38.855469 13.65625 C 38.769531 13.820312 38.714844 13.941406 38.691406 14.011719 C 38.667969 14.066406 38.667969 14.105469 38.675781 14.121094 C 38.683594 14.144531 38.699219 14.152344 38.738281 14.152344 C 38.777344 14.144531 38.832031 14.128906 38.902344 14.097656 Z M 39.433594 13.519531 C 39.417969 13.5625 39.402344 13.609375 39.371094 13.664062 C 39.339844 13.726562 39.300781 13.804688 39.261719 13.890625 C 39.230469 13.964844 39.179688 14.074219 39.117188 14.222656 L 38.984375 14.230469 C 39.023438 14.152344 39.078125 14.042969 39.148438 13.890625 C 39.195312 13.796875 39.230469 13.703125 39.261719 13.625 C 39.277344 13.59375 39.285156 13.5625 39.292969 13.539062 Z M 39.5625 13.300781 C 39.554688 13.332031 39.53125 13.355469 39.507812 13.371094 C 39.480469 13.394531 39.449219 13.402344 39.425781 13.402344 C 39.378906 13.402344 39.371094 13.378906 39.386719 13.332031 C 39.394531 13.300781 39.417969 13.277344 39.441406 13.261719 C 39.464844 13.246094 39.496094 13.230469 39.523438 13.230469 C 39.570312 13.238281 39.578125 13.253906 39.5625 13.300781 Z M 40.140625 13.820312 C 40.097656 13.941406 40.027344 14.042969 39.925781 14.128906 C 39.824219 14.214844 39.710938 14.261719 39.59375 14.261719 C 39.515625 14.261719 39.457031 14.230469 39.425781 14.167969 C 39.394531 14.105469 39.394531 14.027344 39.425781 13.929688 C 39.464844 13.8125 39.539062 13.71875 39.640625 13.632812 C 39.742188 13.546875 39.855469 13.503906 39.972656 13.503906 C 40.050781 13.503906 40.109375 13.539062 40.140625 13.59375 C 40.171875 13.648438 40.171875 13.726562 40.140625 13.820312 Z M 40.003906 13.84375 C 40.027344 13.773438 40.035156 13.71875 40.019531 13.671875 C 40.003906 13.625 39.972656 13.601562 39.910156 13.601562 C 39.839844 13.601562 39.765625 13.632812 39.695312 13.703125 C 39.625 13.773438 39.578125 13.84375 39.554688 13.921875 C 39.53125 13.996094 39.523438 14.050781 39.539062 14.097656 C 39.554688 14.144531 39.585938 14.167969 39.648438 14.167969 C 39.71875 14.167969 39.789062 14.136719 39.863281 14.066406 C 39.925781 13.996094 39.972656 13.921875 40.003906 13.84375 Z M 40.929688 13.726562 C 40.914062 13.765625 40.882812 13.84375 40.828125 13.964844 C 40.773438 14.082031 40.742188 14.167969 40.71875 14.230469 L 40.589844 14.238281 C 40.597656 14.214844 40.628906 14.144531 40.683594 14.035156 C 40.742188 13.914062 40.78125 13.828125 40.804688 13.765625 C 40.828125 13.710938 40.828125 13.671875 40.8125 13.648438 C 40.796875 13.625 40.773438 13.617188 40.726562 13.617188 C 40.667969 13.617188 40.605469 13.648438 40.535156 13.71875 C 40.464844 13.789062 40.398438 13.867188 40.367188 13.949219 C 40.320312 14.058594 40.273438 14.152344 40.242188 14.230469 L 40.117188 14.238281 C 40.242188 13.988281 40.320312 13.8125 40.351562 13.726562 C 40.367188 13.679688 40.390625 13.617188 40.410156 13.539062 L 40.542969 13.519531 C 40.527344 13.5625 40.511719 13.625 40.488281 13.695312 L 40.496094 13.695312 C 40.597656 13.578125 40.710938 13.511719 40.820312 13.511719 C 40.945312 13.511719 40.984375 13.585938 40.929688 13.726562 Z M 41.636719 13.527344 L 41.5625 13.640625 C 41.523438 13.625 41.46875 13.617188 41.40625 13.617188 C 41.3125 13.617188 41.246094 13.648438 41.230469 13.710938 C 41.222656 13.734375 41.222656 13.75 41.238281 13.765625 C 41.253906 13.78125 41.277344 13.796875 41.328125 13.820312 C 41.429688 13.875 41.46875 13.941406 41.4375 14.027344 C 41.382812 14.175781 41.261719 14.253906 41.074219 14.253906 C 40.992188 14.253906 40.929688 14.246094 40.867188 14.230469 L 40.9375 14.121094 C 40.984375 14.144531 41.050781 14.152344 41.121094 14.152344 C 41.230469 14.152344 41.292969 14.121094 41.320312 14.058594 C 41.335938 14.011719 41.304688 13.972656 41.230469 13.929688 C 41.128906 13.875 41.089844 13.804688 41.113281 13.726562 C 41.136719 13.65625 41.183594 13.601562 41.246094 13.570312 C 41.3125 13.527344 41.382812 13.511719 41.453125 13.511719 C 41.53125 13.511719 41.59375 13.519531 41.636719 13.527344 Z M 41.636719 13.527344 " fill-opacity="1" fill-rule="evenodd"/></svg>